<?xml version="1.0" encoding="UTF-8" standalone="no"?>
<svg
   xmlns:dc="http://purl.org/dc/elements/1.1/"
   xmlns:cc="http://creativecommons.org/ns#"
   xmlns:rdf="http://www.w3.org/1999/02/22-rdf-syntax-ns#"
   xmlns:svg="http://www.w3.org/2000/svg"
   xmlns="http://www.w3.org/2000/svg"
   xmlns:sodipodi="http://sodipodi.sourceforge.net/DTD/sodipodi-0.dtd"
   xmlns:inkscape="http://www.inkscape.org/namespaces/inkscape"
   width="27"
   height="26"
   version="1"
   id="svg48"
   sodipodi:docname="app-launcher.svg"
   inkscape:version="0.92.5 (2060ec1f9f, 2020-04-08)">
  <metadata
     id="metadata54">
    <rdf:RDF>
      <cc:Work
         rdf:about="">
        <dc:format>image/svg+xml</dc:format>
        <dc:type
           rdf:resource="http://purl.org/dc/dcmitype/StillImage" />
        <dc:title></dc:title>
      </cc:Work>
    </rdf:RDF>
  </metadata>
  <defs
     id="defs52">
    <style
       type="text/css"
       id="current-color-scheme">
   .ColorScheme-Text { color:#dfdfdf; } .ColorScheme-Highlight { color:#4285f4; }
  </style>
  </defs>
  <sodipodi:namedview
     pagecolor="#ffffff"
     bordercolor="#666666"
     borderopacity="1"
     objecttolerance="10"
     gridtolerance="10"
     guidetolerance="10"
     inkscape:pageopacity="0"
     inkscape:pageshadow="2"
     inkscape:window-width="1920"
     inkscape:window-height="1002"
     id="namedview50"
     showgrid="true"
     showguides="false"
     inkscape:guide-bbox="true"
     inkscape:zoom="7.5853273"
     inkscape:cx="-1.0904598"
     inkscape:cy="23.546678"
     inkscape:window-x="0"
     inkscape:window-y="0"
     inkscape:window-maximized="1"
     inkscape:current-layer="svg48"
     fit-margin-top="0"
     fit-margin-left="0"
     fit-margin-right="0"
     fit-margin-bottom="0">
    <sodipodi:guide
       position="25.957627,-5.3644068"
       orientation="0,1"
       id="guide4582"
       inkscape:locked="false" />
    <sodipodi:guide
       position="43.110169,28.754237"
       orientation="1,0"
       id="guide854"
       inkscape:locked="false" />
    <sodipodi:guide
       position="-52,11"
       orientation="1,0"
       id="guide856"
       inkscape:locked="false" />
    <inkscape:grid
       type="xygrid"
       id="grid865"
       originx="2"
       originy="2" />
  </sodipodi:namedview>
  <rect
     style="opacity:1;fill:#1a1a1a;fill-opacity:1;stroke:none;stroke-width:0.3927922;stroke-linecap:round;stroke-miterlimit:4;stroke-dasharray:none;stroke-dashoffset:0;stroke-opacity:1"
     id="rect29239"
     width="27"
     height="26"
     x="-1.7763568e-15"
     y="-6.9277918e-15"
     ry="6" />
  <rect
     style="opacity:1;fill:#16a085;fill-opacity:1;fill-rule:evenodd;stroke:none;stroke-width:0.17236842;stroke-linecap:round;stroke-linejoin:miter;stroke-miterlimit:4;stroke-dasharray:none;stroke-dashoffset:0;stroke-opacity:1"
     id="rect4149-7"
     width="3.9777327"
     height="16.375"
     x="-9.1244936"
     y="4.8125"
     transform="scale(-1,1)" />
  <rect
     style="opacity:1;fill:#16a085;fill-opacity:1;fill-rule:evenodd;stroke:none;stroke-width:0.17236842;stroke-linecap:round;stroke-linejoin:miter;stroke-miterlimit:4;stroke-dasharray:none;stroke-dashoffset:0;stroke-opacity:1"
     id="rect4149-0-6"
     width="3.9777331"
     height="10.136906"
     x="-15.488867"
     y="11.050594"
     transform="scale(-1,1)" />
  <path
     style="fill:#16a085;fill-opacity:1;fill-rule:evenodd;stroke:none;stroke-width:0.17236842;stroke-linecap:butt;stroke-linejoin:miter;stroke-miterlimit:4;stroke-dasharray:none;stroke-opacity:1"
     d="m 21.853239,17.319218 -3.993271,-0.03053 v 3.89881 h 3.993271 z"
     id="path894"
     inkscape:connector-curvature="0" />
  <path
     style="fill:#e91e63;fill-opacity:1;fill-rule:evenodd;stroke:none;stroke-width:0.17236842;stroke-linecap:butt;stroke-linejoin:miter;stroke-miterlimit:4;stroke-dasharray:none;stroke-opacity:1"
     d="m 17.875506,4.8125 v 3.8569346 0.011964 l 3.977733,0.029911 V 4.8124999 Z"
     id="path882"
     inkscape:connector-curvature="0" />
  <path
     style="fill:#dfdfdf;fill-opacity:1;fill-rule:evenodd;stroke:none;stroke-width:0.17236842;stroke-linecap:butt;stroke-linejoin:miter;stroke-miterlimit:4;stroke-dasharray:none;stroke-opacity:1"
     d="m 15.488867,4.8124999 h -3.977733 v 3.8988094 h 3.977733 z"
     id="path880"
     inkscape:connector-curvature="0" />
  <path
     inkscape:connector-curvature="0"
     id="path1102"
     d="m 21.853239,11.050595 h -3.977733 v 3.89881 h 3.977733 z"
     style="fill:#ffffff;fill-opacity:1;fill-rule:evenodd;stroke:none;stroke-width:0.17236842;stroke-linecap:butt;stroke-linejoin:miter;stroke-miterlimit:4;stroke-dasharray:none;stroke-opacity:1" />
  <path
     inkscape:connector-curvature="0"
     style="opacity:0.1;fill:#ffffff;stroke-width:1.38873017"
     d="M 0.05273437,2.1582031 C -0.38480366,2.42191 0,3.5395733 0,5 0,3.9215734 -0.14242778,3.0386787 0.05273437,2.1582031 Z"
     id="path29251" />
  <path
     inkscape:connector-curvature="0"
     style="opacity:0.1;fill:#ffffff;stroke-width:1.38873017"
     d="M 27.228516,2.0878906 C 27.103317,3.1299603 26.503005,4.2614179 27,5 27,3.4553636 27.757154,2.2555039 27.228516,2.0878906 Z"
     id="path29249" />
  <path
     inkscape:connector-curvature="0"
     style="opacity:0.1;fill:#ffffff;stroke-width:0.93465245"
     d="M 6,0 C 5.169,0 4.3784687,0.16789063 3.6601562,0.47070312 3.4054785,0.5780653 3.2194917,0.78574939 2.984375,0.92578125 l 21.021484,-0.007813 C 23.774024,0.78055032 23.590625,0.57642286 23.339844,0.47070312 22.621531,0.16789063 21.831,0 21,0 Z"
     id="path29245" />
  <path
     inkscape:connector-curvature="0"
     style="opacity:0.2;stroke-width:1.65011549"
     d="m 0,19 v 1 c 0,0.831 0.16789063,1.621531 0.47070312,2.339844 0.3028125,0.718312 0.74095308,1.364 1.28320308,1.90625 0.5422501,0.54225 1.1879375,0.98039 1.90625,1.283203 C 4.3784687,25.832109 5.169,26 6,26 h 15 c 0.831,0 1.621531,-0.167891 2.339844,-0.470703 0.718312,-0.302813 1.364,-0.740953 1.90625,-1.283203 0.54225,-0.54225 0.98039,-1.187938 1.283203,-1.90625 C 26.832109,21.621531 27,20.831 27,20 v -1 c 0,2.346519 -0.645944,4.236328 -1.447266,4.236328 H 1.4472656 C 0.64594417,23.236328 0,21.346519 0,19 Z"
     id="path29219" />
  <g
     id="g29489">
    <g
       transform="translate(-59.859968,-32.28869)"
       id="g29349">
      <rect
         ry="6"
         y="-6.9277918e-15"
         x="-1.7763568e-15"
         height="26"
         width="27"
         id="rect29325"
         style="opacity:1;fill:#1a1a1a;fill-opacity:1;stroke:none;stroke-width:0.3927922;stroke-linecap:round;stroke-miterlimit:4;stroke-dasharray:none;stroke-dashoffset:0;stroke-opacity:1" />
      <g
         transform="matrix(0.86184209,0,0,0.86184209,1.8651318,1.796053)"
         id="g29339">
        <rect
           style="opacity:1;fill:#16a085;fill-opacity:1;fill-rule:evenodd;stroke:none;stroke-width:0.2;stroke-linecap:round;stroke-linejoin:miter;stroke-miterlimit:4;stroke-dasharray:none;stroke-dashoffset:0;stroke-opacity:1"
           id="rect29327"
           width="4.6153846"
           height="19"
           x="-8.4230766"
           y="3.4999995"
           transform="scale(-1,1)" />
        <rect
           style="opacity:1;fill:#16a085;fill-opacity:1;fill-rule:evenodd;stroke:none;stroke-width:0.2;stroke-linecap:round;stroke-linejoin:miter;stroke-miterlimit:4;stroke-dasharray:none;stroke-dashoffset:0;stroke-opacity:1"
           id="rect29329"
           width="4.6153851"
           height="11.761906"
           x="-15.807693"
           y="10.738094"
           transform="scale(-1,1)" />
        <path
           style="fill:#16a085;fill-opacity:1;fill-rule:evenodd;stroke:none;stroke-width:0.2;stroke-linecap:butt;stroke-linejoin:miter;stroke-miterlimit:4;stroke-dasharray:none;stroke-opacity:1"
           d="M 23.192308,18.011612 18.558894,17.97619 V 22.5 h 4.633414 z"
           id="path29331"
           inkscape:connector-curvature="0" />
        <path
           style="fill:#e91e63;fill-opacity:1;fill-rule:evenodd;stroke:none;stroke-width:0.2;stroke-linecap:butt;stroke-linejoin:miter;stroke-miterlimit:4;stroke-dasharray:none;stroke-opacity:1"
           d="m 18.576923,3.4999996 v 4.4752219 0.013882 l 4.615385,0.034706 v -4.52381 z"
           id="path29333"
           inkscape:connector-curvature="0" />
        <path
           style="fill:#ffffff;fill-opacity:1;fill-rule:evenodd;stroke:none;stroke-width:0.2;stroke-linecap:butt;stroke-linejoin:miter;stroke-miterlimit:4;stroke-dasharray:none;stroke-opacity:1"
           d="M 15.807693,3.4999995 H 11.192308 V 8.023809 h 4.615385 z"
           id="path29335"
           inkscape:connector-curvature="0" />
        <path
           inkscape:connector-curvature="0"
           id="path29337"
           d="m 23.192308,10.738095 h -4.615385 v 4.52381 h 4.615385 z"
           style="fill:#ffffff;fill-opacity:1;fill-rule:evenodd;stroke:none;stroke-width:0.2;stroke-linecap:butt;stroke-linejoin:miter;stroke-miterlimit:4;stroke-dasharray:none;stroke-opacity:1" />
      </g>
      <path
         inkscape:connector-curvature="0"
         id="path29341"
         d="M 0.05273437,2.1582031 C -0.38480366,2.42191 0,3.5395733 0,5 0,3.9215734 -0.14242778,3.0386787 0.05273437,2.1582031 Z"
         style="opacity:0.1;fill:#ffffff;stroke-width:1.38873017" />
      <path
         inkscape:connector-curvature="0"
         id="path29343"
         d="M 27.228516,2.0878906 C 27.103317,3.1299603 26.503005,4.2614179 27,5 27,3.4553636 27.757154,2.2555039 27.228516,2.0878906 Z"
         style="opacity:0.1;fill:#ffffff;stroke-width:1.38873017" />
      <path
         inkscape:connector-curvature="0"
         id="path29345"
         d="M 6,0 C 5.169,0 4.3784687,0.16789063 3.6601562,0.47070312 3.4054785,0.5780653 3.2194917,0.78574939 2.984375,0.92578125 l 21.021484,-0.007813 C 23.774024,0.78055032 23.590625,0.57642286 23.339844,0.47070312 22.621531,0.16789063 21.831,0 21,0 Z"
         style="opacity:0.1;fill:#ffffff;stroke-width:0.93465245" />
      <path
         inkscape:connector-curvature="0"
         id="path29347"
         d="m 0,19 v 1 c 0,0.831 0.16789063,1.621531 0.47070312,2.339844 0.3028125,0.718312 0.74095308,1.364 1.28320308,1.90625 0.5422501,0.54225 1.1879375,0.98039 1.90625,1.283203 C 4.3784687,25.832109 5.169,26 6,26 h 15 c 0.831,0 1.621531,-0.167891 2.339844,-0.470703 0.718312,-0.302813 1.364,-0.740953 1.90625,-1.283203 0.54225,-0.54225 0.98039,-1.187938 1.283203,-1.90625 C 26.832109,21.621531 27,20.831 27,20 v -1 c 0,2.346519 -0.645944,4.236328 -1.447266,4.236328 H 1.4472656 C 0.64594417,23.236328 0,21.346519 0,19 Z"
         style="opacity:0.2;stroke-width:1.65011549" />
    </g>
    <rect
       ry="6"
       y="-32.288689"
       x="-59.859966"
       height="26"
       width="27"
       id="rect29351"
       style="opacity:1;fill:#1a1a1a;fill-opacity:1;stroke:none;stroke-width:0.3927922;stroke-linecap:round;stroke-miterlimit:4;stroke-dasharray:none;stroke-dashoffset:0;stroke-opacity:1" />
    <rect
       transform="scale(-1,1)"
       y="-27.476191"
       x="50.735474"
       height="16.375"
       width="3.9777327"
       id="rect29353"
       style="opacity:1;fill:#ffffff;fill-opacity:1;fill-rule:evenodd;stroke:none;stroke-width:0.17236842;stroke-linecap:round;stroke-linejoin:miter;stroke-miterlimit:4;stroke-dasharray:none;stroke-dashoffset:0;stroke-opacity:1" />
    <rect
       transform="scale(-1,1)"
       y="-21.238096"
       x="44.371101"
       height="10.136906"
       width="3.9777331"
       id="rect29355"
       style="opacity:1;fill:#ffffff;fill-opacity:1;fill-rule:evenodd;stroke:none;stroke-width:0.17236842;stroke-linecap:round;stroke-linejoin:miter;stroke-miterlimit:4;stroke-dasharray:none;stroke-dashoffset:0;stroke-opacity:1" />
    <path
       inkscape:connector-curvature="0"
       id="path29357"
       d="M -38.006729,-14.969472 -42,-15 v 3.89881 h 3.993271 z"
       style="fill:#ffffff;fill-opacity:1;fill-rule:evenodd;stroke:none;stroke-width:0.17236842;stroke-linecap:butt;stroke-linejoin:miter;stroke-miterlimit:4;stroke-dasharray:none;stroke-opacity:1" />
    <path
       inkscape:connector-curvature="0"
       id="path29359"
       d="m -41.984462,-27.47619 v 3.856935 0.01196 l 3.977733,0.02991 v -3.89881 z"
       style="fill:#e91e63;fill-opacity:1;fill-rule:evenodd;stroke:none;stroke-width:0.17236842;stroke-linecap:butt;stroke-linejoin:miter;stroke-miterlimit:4;stroke-dasharray:none;stroke-opacity:1" />
    <path
       inkscape:connector-curvature="0"
       id="path29361"
       d="m -44.371101,-27.47619 h -3.977733 v 3.898809 h 3.977733 z"
       style="fill:#16a085;fill-opacity:1;fill-rule:evenodd;stroke:none;stroke-width:0.17236842;stroke-linecap:butt;stroke-linejoin:miter;stroke-miterlimit:4;stroke-dasharray:none;stroke-opacity:1" />
    <path
       style="fill:#16a085;fill-opacity:1;fill-rule:evenodd;stroke:none;stroke-width:0.17236842;stroke-linecap:butt;stroke-linejoin:miter;stroke-miterlimit:4;stroke-dasharray:none;stroke-opacity:1"
       d="m -38.006729,-21.238095 h -3.977733 v 3.89881 h 3.977733 z"
       id="path29363"
       inkscape:connector-curvature="0" />
    <path
       inkscape:connector-curvature="0"
       id="path29367"
       d="m -59.807234,-30.130487 c -0.437538,0.263707 -0.05273,1.38137 -0.05273,2.841797 0,-1.078427 -0.142428,-1.961321 0.05273,-2.841797 z"
       style="opacity:0.1;fill:#ffffff;stroke-width:1.38873017" />
    <path
       inkscape:connector-curvature="0"
       id="path29369"
       d="m -32.631452,-30.200799 c -0.125199,1.042069 -0.725511,2.173527 -0.228516,2.912109 0,-1.544636 0.757154,-2.744496 0.228516,-2.912109 z"
       style="opacity:0.1;fill:#ffffff;stroke-width:1.38873017" />
    <path
       inkscape:connector-curvature="0"
       id="path29371"
       d="m -53.859968,-32.28869 c -0.831,0 -1.621531,0.167891 -2.339844,0.470703 -0.254677,0.107362 -0.440664,0.315046 -0.675781,0.455078 l 21.021484,-0.0078 c -0.231835,-0.137418 -0.415234,-0.341545 -0.666015,-0.447265 -0.718313,-0.302812 -1.508844,-0.470703 -2.339844,-0.470703 z"
       style="opacity:0.1;fill:#ffffff;stroke-width:0.93465245" />
    <path
       inkscape:connector-curvature="0"
       id="path29373"
       d="m -59.859968,-13.28869 v 1 c 0,0.831 0.167891,1.621531 0.470703,2.339844 0.302813,0.718312 0.740953,1.364 1.283203,1.90625 0.54225,0.54225 1.187938,0.98039 1.90625,1.283203 0.718313,0.302812 1.508844,0.470703 2.339844,0.470703 h 15 c 0.831,0 1.621531,-0.167891 2.339844,-0.470703 0.718312,-0.302813 1.364,-0.740953 1.90625,-1.283203 0.54225,-0.54225 0.98039,-1.187938 1.283203,-1.90625 0.302812,-0.718313 0.470703,-1.508844 0.470703,-2.339844 v -1 c 0,2.346519 -0.645944,4.236328 -1.447266,4.236328 h -24.105468 c -0.801322,0 -1.447266,-1.889809 -1.447266,-4.236328 z"
       style="opacity:0.2;stroke-width:1.65011549" />
  </g>
  <g
     id="g29401"
     transform="translate(-60.511133,-3.0505947)">
    <rect
       style="opacity:1;fill:#1a1a1a;fill-opacity:1;stroke:none;stroke-width:0.3927922;stroke-linecap:round;stroke-miterlimit:4;stroke-dasharray:none;stroke-dashoffset:0;stroke-opacity:1"
       id="rect29377"
       width="27"
       height="26"
       x="-1.7763568e-15"
       y="-6.9277918e-15"
       ry="6" />
    <g
       id="g29391"
       transform="matrix(0.86184209,0,0,0.86184209,1.8651318,1.796053)">
      <rect
         transform="scale(-1,1)"
         y="3.4999995"
         x="-8.4230766"
         height="19"
         width="4.6153846"
         id="rect29379"
         style="opacity:1;fill:#16a085;fill-opacity:1;fill-rule:evenodd;stroke:none;stroke-width:0.2;stroke-linecap:round;stroke-linejoin:miter;stroke-miterlimit:4;stroke-dasharray:none;stroke-dashoffset:0;stroke-opacity:1" />
      <rect
         transform="scale(-1,1)"
         y="10.738094"
         x="-15.807693"
         height="11.761906"
         width="4.6153851"
         id="rect29381"
         style="opacity:1;fill:#16a085;fill-opacity:1;fill-rule:evenodd;stroke:none;stroke-width:0.2;stroke-linecap:round;stroke-linejoin:miter;stroke-miterlimit:4;stroke-dasharray:none;stroke-dashoffset:0;stroke-opacity:1" />
      <path
         inkscape:connector-curvature="0"
         id="path29383"
         d="M 23.192308,18.011612 18.558894,17.97619 V 22.5 h 4.633414 z"
         style="fill:#16a085;fill-opacity:1;fill-rule:evenodd;stroke:none;stroke-width:0.2;stroke-linecap:butt;stroke-linejoin:miter;stroke-miterlimit:4;stroke-dasharray:none;stroke-opacity:1" />
      <path
         inkscape:connector-curvature="0"
         id="path29385"
         d="m 18.576923,3.4999996 v 4.4752219 0.013882 l 4.615385,0.034706 v -4.52381 z"
         style="fill:#e91e63;fill-opacity:1;fill-rule:evenodd;stroke:none;stroke-width:0.2;stroke-linecap:butt;stroke-linejoin:miter;stroke-miterlimit:4;stroke-dasharray:none;stroke-opacity:1" />
      <path
         inkscape:connector-curvature="0"
         id="path29387"
         d="M 15.807693,3.4999995 H 11.192308 V 8.023809 h 4.615385 z"
         style="fill:#ffffff;fill-opacity:1;fill-rule:evenodd;stroke:none;stroke-width:0.2;stroke-linecap:butt;stroke-linejoin:miter;stroke-miterlimit:4;stroke-dasharray:none;stroke-opacity:1" />
      <path
         style="fill:#ffffff;fill-opacity:1;fill-rule:evenodd;stroke:none;stroke-width:0.2;stroke-linecap:butt;stroke-linejoin:miter;stroke-miterlimit:4;stroke-dasharray:none;stroke-opacity:1"
         d="m 23.192308,10.738095 h -4.615385 v 4.52381 h 4.615385 z"
         id="path29389"
         inkscape:connector-curvature="0" />
    </g>
    <path
       style="opacity:0.1;fill:#ffffff;stroke-width:1.38873017"
       d="M 0.05273437,2.1582031 C -0.38480366,2.42191 0,3.5395733 0,5 0,3.9215734 -0.14242778,3.0386787 0.05273437,2.1582031 Z"
       id="path29393"
       inkscape:connector-curvature="0" />
    <path
       style="opacity:0.1;fill:#ffffff;stroke-width:1.38873017"
       d="M 27.228516,2.0878906 C 27.103317,3.1299603 26.503005,4.2614179 27,5 27,3.4553636 27.757154,2.2555039 27.228516,2.0878906 Z"
       id="path29395"
       inkscape:connector-curvature="0" />
    <path
       style="opacity:0.1;fill:#ffffff;stroke-width:0.93465245"
       d="M 6,0 C 5.169,0 4.3784687,0.16789063 3.6601562,0.47070312 3.4054785,0.5780653 3.2194917,0.78574939 2.984375,0.92578125 l 21.021484,-0.007813 C 23.774024,0.78055032 23.590625,0.57642286 23.339844,0.47070312 22.621531,0.16789063 21.831,0 21,0 Z"
       id="path29397"
       inkscape:connector-curvature="0" />
    <path
       style="opacity:0.2;stroke-width:1.65011549"
       d="m 0,19 v 1 c 0,0.831 0.16789063,1.621531 0.47070312,2.339844 0.3028125,0.718312 0.74095308,1.364 1.28320308,1.90625 0.5422501,0.54225 1.1879375,0.98039 1.90625,1.283203 C 4.3784687,25.832109 5.169,26 6,26 h 15 c 0.831,0 1.621531,-0.167891 2.339844,-0.470703 0.718312,-0.302813 1.364,-0.740953 1.90625,-1.283203 0.54225,-0.54225 0.98039,-1.187938 1.283203,-1.90625 C 26.832109,21.621531 27,20.831 27,20 v -1 c 0,2.346519 -0.645944,4.236328 -1.447266,4.236328 H 1.4472656 C 0.64594417,23.236328 0,21.346519 0,19 Z"
       id="path29399"
       inkscape:connector-curvature="0" />
  </g>
  <g
     id="g29502">
    <rect
       style="opacity:1;fill:#1a1a1a;fill-opacity:1;stroke:none;stroke-width:0.3927922;stroke-linecap:round;stroke-miterlimit:4;stroke-dasharray:none;stroke-dashoffset:0;stroke-opacity:1"
       id="rect29403"
       width="27"
       height="26"
       x="-29.875505"
       y="-31.949406"
       ry="6" />
    <rect
       style="opacity:1;fill:#ffffff;fill-opacity:1;fill-rule:evenodd;stroke:none;stroke-width:0.17236842;stroke-linecap:round;stroke-linejoin:miter;stroke-miterlimit:4;stroke-dasharray:none;stroke-dashoffset:0;stroke-opacity:1"
       id="rect29405"
       width="3.9777327"
       height="16.375"
       x="20.751013"
       y="-27.136906"
       transform="scale(-1,1)" />
    <rect
       style="opacity:1;fill:#ffffff;fill-opacity:1;fill-rule:evenodd;stroke:none;stroke-width:0.17236842;stroke-linecap:round;stroke-linejoin:miter;stroke-miterlimit:4;stroke-dasharray:none;stroke-dashoffset:0;stroke-opacity:1"
       id="rect29407"
       width="3.9777331"
       height="10.136906"
       x="14.38664"
       y="-20.898809"
       transform="scale(-1,1)" />
    <path
       style="fill:#ffffff;fill-opacity:1;fill-rule:evenodd;stroke:none;stroke-width:0.17236842;stroke-linecap:butt;stroke-linejoin:miter;stroke-miterlimit:4;stroke-dasharray:none;stroke-opacity:1"
       d="m -8.0222668,-14.630187 -3.9932712,-0.03053 v 3.89881 h 3.9932712 z"
       id="path29409"
       inkscape:connector-curvature="0" />
    <path
       style="fill:#e91e63;fill-opacity:1;fill-rule:evenodd;stroke:none;stroke-width:0.17236842;stroke-linecap:butt;stroke-linejoin:miter;stroke-miterlimit:4;stroke-dasharray:none;stroke-opacity:1"
       d="m -12,-27.136905 v 3.856935 0.01196 l 3.9777332,0.02991 v -3.89881 z"
       id="path29411"
       inkscape:connector-curvature="0" />
    <path
       style="fill:#ffffff;fill-opacity:1;fill-rule:evenodd;stroke:none;stroke-width:0.17236842;stroke-linecap:butt;stroke-linejoin:miter;stroke-miterlimit:4;stroke-dasharray:none;stroke-opacity:1"
       d="m -14.386639,-27.136905 h -3.977733 v 3.898809 h 3.977733 z"
       id="path29413"
       inkscape:connector-curvature="0" />
    <path
       inkscape:connector-curvature="0"
       id="path29415"
       d="M -8.0222668,-20.89881 H -12 V -17 h 3.9777332 z"
       style="fill:#ffffff;fill-opacity:1;fill-rule:evenodd;stroke:none;stroke-width:0.17236842;stroke-linecap:butt;stroke-linejoin:miter;stroke-miterlimit:4;stroke-dasharray:none;stroke-opacity:1" />
    <path
       style="opacity:0.1;fill:#ffffff;stroke-width:1.38873017"
       d="m -29.822772,-29.791202 c -0.437538,0.263707 -0.05273,1.38137 -0.05273,2.841797 0,-1.078427 -0.142428,-1.961321 0.05273,-2.841797 z"
       id="path29419"
       inkscape:connector-curvature="0" />
    <path
       style="opacity:0.1;fill:#ffffff;stroke-width:1.38873017"
       d="m -2.64699,-29.861514 c -0.125199,1.042069 -0.725511,2.173527 -0.228516,2.912109 0,-1.544636 0.757154,-2.744496 0.228516,-2.912109 z"
       id="path29421"
       inkscape:connector-curvature="0" />
    <path
       style="opacity:0.1;fill:#ffffff;stroke-width:0.93465245"
       d="m -23.875506,-31.949405 c -0.831,0 -1.621531,0.167891 -2.339844,0.470703 -0.254677,0.107362 -0.440664,0.315046 -0.675781,0.455078 l 21.021484,-0.0078 c -0.231835,-0.137418 -0.415234,-0.341545 -0.666015,-0.447265 -0.718313,-0.302812 -1.508844,-0.470703 -2.339844,-0.470703 z"
       id="path29423"
       inkscape:connector-curvature="0" />
    <path
       style="opacity:0.2;stroke-width:1.65011549"
       d="m -29.875506,-12.949405 v 1 c 0,0.831 0.167891,1.621531 0.470703,2.339844 0.302813,0.718312 0.740953,1.364 1.283203,1.90625 0.54225,0.54225 1.187938,0.98039 1.90625,1.283203 0.718313,0.302812 1.508844,0.470703 2.339844,0.470703 h 15 c 0.831,0 1.621531,-0.167891 2.339844,-0.470703 0.718312,-0.302813 1.364,-0.740953 1.90625,-1.283203 0.54225,-0.54225 0.98039,-1.187938 1.283203,-1.90625 0.302812,-0.718313 0.470703,-1.508844 0.470703,-2.339844 v -1 c 0,2.346519 -0.645944,4.236328 -1.447266,4.236328 H -28.42824 c -0.801322,0 -1.447266,-1.889809 -1.447266,-4.236328 z"
       id="path29425"
       inkscape:connector-curvature="0" />
  </g>
  <rect
     style="opacity:1;fill:#1a1a1a;fill-opacity:1;stroke:none;stroke-width:0.3927922;stroke-linecap:round;stroke-miterlimit:4;stroke-dasharray:none;stroke-dashoffset:0;stroke-opacity:1"
     id="rect29504"
     width="27"
     height="26"
     x="-31.488865"
     y="-2.0505967"
     ry="6" />
  <path
     style="opacity:0.1;fill:#ffffff;stroke-width:1.38873017"
     d="m -4.2603504,0.037295 c -0.125199,1.042069 -0.725511,2.173527 -0.228516,2.912109 0,-1.544636 0.757154,-2.744496 0.228516,-2.912109 z"
     id="path29520"
     inkscape:connector-curvature="0" />
  <g
     id="g29565">
    <rect
       transform="scale(-1,1)"
       y="2.7619033"
       x="22.364372"
       height="16.375"
       width="3.9777327"
       id="rect29506"
       style="opacity:1;fill:#ffffff;fill-opacity:1;fill-rule:evenodd;stroke:none;stroke-width:0.17236842;stroke-linecap:round;stroke-linejoin:miter;stroke-miterlimit:4;stroke-dasharray:none;stroke-dashoffset:0;stroke-opacity:1" />
    <rect
       transform="scale(-1,1)"
       y="9"
       x="16"
       height="10.136906"
       width="3.9777331"
       id="rect29508"
       style="opacity:1;fill:#ffffff;fill-opacity:1;fill-rule:evenodd;stroke:none;stroke-width:0.17236842;stroke-linecap:round;stroke-linejoin:miter;stroke-miterlimit:4;stroke-dasharray:none;stroke-dashoffset:0;stroke-opacity:1" />
    <path
       inkscape:connector-curvature="0"
       id="path29510"
       d="m -9.6356272,15.268622 -3.9932708,-0.03053 v 3.89881 h 3.9932708 z"
       style="fill:#ffffff;fill-opacity:1;fill-rule:evenodd;stroke:none;stroke-width:0.17236842;stroke-linecap:butt;stroke-linejoin:miter;stroke-miterlimit:4;stroke-dasharray:none;stroke-opacity:1" />
    <path
       inkscape:connector-curvature="0"
       id="path29512"
       d="m -13.61336,2.761904 v 3.856935 0.01196 l 3.9777328,0.02991 v -3.89881 z"
       style="fill:#16a085;fill-opacity:1;fill-rule:evenodd;stroke:none;stroke-width:0.17236842;stroke-linecap:butt;stroke-linejoin:miter;stroke-miterlimit:4;stroke-dasharray:none;stroke-opacity:1" />
    <path
       inkscape:connector-curvature="0"
       id="path29514"
       d="m -15.999999,2.761904 h -3.977733 v 3.898809 h 3.977733 z"
       style="fill:#ffffff;fill-opacity:1;fill-rule:evenodd;stroke:none;stroke-width:0.17236842;stroke-linecap:butt;stroke-linejoin:miter;stroke-miterlimit:4;stroke-dasharray:none;stroke-opacity:1" />
    <path
       style="fill:#ffffff;fill-opacity:1;fill-rule:evenodd;stroke:none;stroke-width:0.17236842;stroke-linecap:butt;stroke-linejoin:miter;stroke-miterlimit:4;stroke-dasharray:none;stroke-opacity:1"
       d="M -9.6356272,8.999999 H -13.61336 v 3.89881 h 3.9777328 z"
       id="path29516"
       inkscape:connector-curvature="0" />
    <path
       inkscape:connector-curvature="0"
       id="path29518"
       d="m -31.436132,0.107607 c -0.437538,0.263707 -0.05273,1.38137 -0.05273,2.841797 0,-1.078427 -0.142428,-1.961321 0.05273,-2.841797 z"
       style="opacity:0.1;fill:#ffffff;stroke-width:1.38873017" />
    <path
       inkscape:connector-curvature="0"
       id="path29522"
       d="m -25.488866,-2.050596 c -0.831,0 -1.621531,0.167891 -2.339844,0.470703 -0.254677,0.107362 -0.440664,0.315046 -0.675781,0.455078 l 21.0214836,-0.0078 c -0.231835,-0.137418 -0.415234,-0.341545 -0.666015,-0.447265 -0.718313,-0.302812 -1.508844,-0.470703 -2.3398436,-0.470703 z"
       style="opacity:0.1;fill:#ffffff;stroke-width:0.93465245" />
  </g>
  <path
     style="opacity:0.2;stroke-width:1.65011549"
     d="m -31.488866,16.949404 v 1 c 0,0.831 0.167891,1.621531 0.470703,2.339844 0.302813,0.718312 0.740953,1.364 1.283203,1.90625 0.54225,0.54225 1.187938,0.98039 1.90625,1.283203 0.718313,0.302812 1.508844,0.470703 2.339844,0.470703 h 15 c 0.8309996,0 1.6215306,-0.167891 2.3398436,-0.470703 0.718312,-0.302813 1.364,-0.740953 1.90625,-1.283203 0.54225,-0.54225 0.98039,-1.187938 1.283203,-1.90625 0.302812,-0.718313 0.470703,-1.508844 0.470703,-2.339844 v -1 c 0,2.346519 -0.645944,4.236328 -1.447266,4.236328 H -30.0416 c -0.801322,0 -1.447266,-1.889809 -1.447266,-4.236328 z"
     id="path29524"
     inkscape:connector-curvature="0" />
  <rect
     style="opacity:1;fill:#333333;fill-opacity:1;stroke:none;stroke-width:0.11677485;stroke-linecap:round;stroke-miterlimit:4;stroke-dasharray:none;stroke-dashoffset:0;stroke-opacity:1"
     id="rect29567"
     width="50"
     height="30"
     x="37"
     y="-1" />
  <g
     id="g29603"
     style="fill:#dfdfdf">
    <rect
       style="opacity:1;fill:#dfdfdf;fill-opacity:1;fill-rule:evenodd;stroke:none;stroke-width:0.17236842;stroke-linecap:round;stroke-linejoin:miter;stroke-miterlimit:4;stroke-dasharray:none;stroke-dashoffset:0;stroke-opacity:1"
       id="rect29577"
       width="3.9777327"
       height="16.375"
       x="-74.271255"
       y="-1.136905"
       transform="scale(-1,1)" />
    <rect
       style="opacity:1;fill:#dfdfdf;fill-opacity:1;fill-rule:evenodd;stroke:none;stroke-width:0.17236842;stroke-linecap:round;stroke-linejoin:miter;stroke-miterlimit:4;stroke-dasharray:none;stroke-dashoffset:0;stroke-opacity:1"
       id="rect29579"
       width="3.9777331"
       height="10.136906"
       x="-80.635628"
       y="5.1011891"
       transform="scale(-1,1)" />
    <path
       style="fill:#dfdfdf;fill-opacity:1;fill-rule:evenodd;stroke:none;stroke-width:0.17236842;stroke-linecap:butt;stroke-linejoin:miter;stroke-miterlimit:4;stroke-dasharray:none;stroke-opacity:1"
       d="m 87,11.369813 -3.993271,-0.03053 v 3.89881 H 87 Z"
       id="path29581"
       inkscape:connector-curvature="0" />
    <path
       style="fill:#dfdfdf;fill-opacity:1;fill-rule:evenodd;stroke:none;stroke-width:0.17236842;stroke-linecap:butt;stroke-linejoin:miter;stroke-miterlimit:4;stroke-dasharray:none;stroke-opacity:1"
       d="m 83.022267,-1.136905 v 3.8569346 0.011964 L 87,2.7619046 v -3.8988097 z"
       id="path29583"
       inkscape:connector-curvature="0" />
    <path
       style="fill:#dfdfdf;fill-opacity:1;fill-rule:evenodd;stroke:none;stroke-width:0.17236842;stroke-linecap:butt;stroke-linejoin:miter;stroke-miterlimit:4;stroke-dasharray:none;stroke-opacity:1"
       d="m 80.635628,-1.1369051 h -3.977733 v 3.8988094 h 3.977733 z"
       id="path29585"
       inkscape:connector-curvature="0" />
    <path
       inkscape:connector-curvature="0"
       id="path29587"
       d="M 87,5.10119 H 83.022267 V 9 H 87 Z"
       style="fill:#dfdfdf;fill-opacity:1;fill-rule:evenodd;stroke:none;stroke-width:0.17236842;stroke-linecap:butt;stroke-linejoin:miter;stroke-miterlimit:4;stroke-dasharray:none;stroke-opacity:1" />
  </g>
  <g
     id="g29654"
     transform="translate(-1.022267)">
    <path
       style="fill:#ffffff;fill-opacity:1;fill-rule:evenodd;stroke:none;stroke-width:0.17236842;stroke-linecap:butt;stroke-linejoin:miter;stroke-miterlimit:4;stroke-dasharray:none;stroke-opacity:1"
       d="m 67,11.369813 -3.993271,-0.03053 v 3.89881 H 67 Z"
       id="path29609"
       inkscape:connector-curvature="0" />
    <path
       style="fill:#e91e63;fill-opacity:1;fill-rule:evenodd;stroke:none;stroke-width:0.17236842;stroke-linecap:butt;stroke-linejoin:miter;stroke-miterlimit:4;stroke-dasharray:none;stroke-opacity:1"
       d="m 63.022267,-1.136905 v 3.8569346 0.011964 L 67,2.7619046 v -3.8988097 z"
       id="path29611"
       inkscape:connector-curvature="0" />
    <path
       inkscape:connector-curvature="0"
       id="path29615"
       d="M 67,5.10119 H 63.022267 V 9 H 67 Z"
       style="fill:#e91e63;fill-opacity:1;fill-rule:evenodd;stroke:none;stroke-width:0.17236842;stroke-linecap:butt;stroke-linejoin:miter;stroke-miterlimit:4;stroke-dasharray:none;stroke-opacity:1" />
    <rect
       style="opacity:1;fill:#16a085;fill-opacity:1;fill-rule:evenodd;stroke:none;stroke-width:0.17236842;stroke-linecap:round;stroke-linejoin:miter;stroke-miterlimit:4;stroke-dasharray:none;stroke-dashoffset:0;stroke-opacity:1"
       id="rect29619"
       width="3.9777327"
       height="16.375"
       x="-47.891346"
       y="-1.1369063"
       transform="scale(-1,1)" />
    <rect
       style="opacity:1;fill:#16a085;fill-opacity:1;fill-rule:evenodd;stroke:none;stroke-width:0.17236842;stroke-linecap:round;stroke-linejoin:miter;stroke-miterlimit:4;stroke-dasharray:none;stroke-dashoffset:0;stroke-opacity:1"
       id="rect29621"
       width="3.9777331"
       height="10.136906"
       x="-54.255718"
       y="5.1011882"
       transform="scale(-1,1)" />
    <path
       style="fill:#16a085;fill-opacity:1;fill-rule:evenodd;stroke:none;stroke-width:0.17236842;stroke-linecap:butt;stroke-linejoin:miter;stroke-miterlimit:4;stroke-dasharray:none;stroke-opacity:1"
       d="m 60.62009,11.369812 -3.993271,-0.03053 v 3.89881 h 3.993271 z"
       id="path29623"
       inkscape:connector-curvature="0" />
    <path
       style="fill:#e91e63;fill-opacity:1;fill-rule:evenodd;stroke:none;stroke-width:0.17236842;stroke-linecap:butt;stroke-linejoin:miter;stroke-miterlimit:4;stroke-dasharray:none;stroke-opacity:1"
       d="m 56.642357,-1.1369063 v 3.8569346 0.011964 l 3.977733,0.029911 v -3.8988097 z"
       id="path29625"
       inkscape:connector-curvature="0" />
    <path
       style="fill:#ffffff;fill-opacity:1;fill-rule:evenodd;stroke:none;stroke-width:0.17236842;stroke-linecap:butt;stroke-linejoin:miter;stroke-miterlimit:4;stroke-dasharray:none;stroke-opacity:1"
       d="M 54.255718,-1.1369064 H 50.277985 V 2.761903 h 3.977733 z"
       id="path29627"
       inkscape:connector-curvature="0" />
    <path
       inkscape:connector-curvature="0"
       id="path29629"
       d="m 60.62009,5.1011887 h -3.977733 v 3.89881 h 3.977733 z"
       style="fill:#ffffff;fill-opacity:1;fill-rule:evenodd;stroke:none;stroke-width:0.17236842;stroke-linecap:butt;stroke-linejoin:miter;stroke-miterlimit:4;stroke-dasharray:none;stroke-opacity:1" />
  </g>
  <path
     id="path29779"
     d="m 18.637,-26.05084 c -1.8412,1.72364 -4.9418,2.99184 -6,3.25004 0,4.6664 2.25,9.972 6,10.75 3.75,-0.778 6,-6.0836 6,-10.75 -1.059,-0.2582 -4.1589,-1.5264 -6,-3.25004 z M 22,-21 l 0.707,0.707 -3.5348,3.5352 -0.7071,0.707 -0.707,-0.707 -2.1211,-2.1211 0.707,-0.7071 2.1211,2.1211 z"
     class="ColorScheme-Text"
     style="color:#dfdfdf;fill:currentColor;fill-rule:evenodd"
     inkscape:connector-curvature="0" />
</svg>
