<?xml version="1.0" encoding="UTF-8" standalone="no"?>
<svg
   xmlns:dc="http://purl.org/dc/elements/1.1/"
   xmlns:cc="http://creativecommons.org/ns#"
   xmlns:rdf="http://www.w3.org/1999/02/22-rdf-syntax-ns#"
   xmlns:svg="http://www.w3.org/2000/svg"
   xmlns="http://www.w3.org/2000/svg"
   xmlns:sodipodi="http://sodipodi.sourceforge.net/DTD/sodipodi-0.dtd"
   xmlns:inkscape="http://www.inkscape.org/namespaces/inkscape"
   width="30"
   height="30"
   viewBox="0 0 30 30"
   version="1.1"
   id="svg7"
   sodipodi:docname="lock.svg"
   inkscape:version="1.0.2 (e86c870879, 2021-01-15)">
  <metadata
     id="metadata11">
    <rdf:RDF>
      <cc:Work
         rdf:about="">
        <dc:format>image/svg+xml</dc:format>
        <dc:type
           rdf:resource="http://purl.org/dc/dcmitype/StillImage" />
        <dc:title></dc:title>
      </cc:Work>
    </rdf:RDF>
  </metadata>
  <sodipodi:namedview
     pagecolor="#ffffff"
     bordercolor="#666666"
     borderopacity="1"
     objecttolerance="10"
     gridtolerance="10"
     guidetolerance="10"
     inkscape:pageopacity="0"
     inkscape:pageshadow="2"
     inkscape:window-width="1920"
     inkscape:window-height="980"
     id="namedview9"
     showgrid="false"
     inkscape:zoom="9.534091"
     inkscape:cx="4.693683"
     inkscape:cy="5.7556615"
     inkscape:window-x="0"
     inkscape:window-y="36"
     inkscape:window-maximized="1"
     inkscape:current-layer="svg7"
     inkscape:document-rotation="0" />
  <defs
     id="defs3">
    <style
       id="current-color-scheme"
       type="text/css">
   .ColorScheme-Text { color:#444444; } .ColorScheme-Highlight { color:#4285f4; }
  </style>
  </defs>
  <path
     style="fill:#cccccc;stroke-width:1.42857"
     class="ColorScheme-Text"
     d="M 15,5 C 11.834286,5 9.2857141,7.6022855 9.2857141,10.803571 v 2.767858 h -1.428571 c -0.7914284,0 -1.4285713,0.637142 -1.4285713,1.428571 v 8.571429 C 6.4285718,24.362857 7.0657147,25 7.8571431,25 H 22.142856 c 0.79143,0 1.428572,-0.637143 1.428572,-1.428571 V 15 c 0,-0.791429 -0.637142,-1.428571 -1.428571,-1.428571 H 20.714286 V 10.803571 C 20.714286,7.6035715 18.165714,5 15,5 Z m 0,2.857143 c 1.582856,0 2.857142,1.2742857 2.857142,2.857142 v 2.857144 h -5.714286 v -2.857144 c 0,-1.5828563 1.274286,-2.857142 2.857144,-2.857142 z"
     id="path5" />
</svg>
