<?xml version="1.0" encoding="UTF-8" standalone="no"?>
<svg
   xmlns:dc="http://purl.org/dc/elements/1.1/"
   xmlns:cc="http://creativecommons.org/ns#"
   xmlns:rdf="http://www.w3.org/1999/02/22-rdf-syntax-ns#"
   xmlns:svg="http://www.w3.org/2000/svg"
   xmlns="http://www.w3.org/2000/svg"
   xmlns:sodipodi="http://sodipodi.sourceforge.net/DTD/sodipodi-0.dtd"
   xmlns:inkscape="http://www.inkscape.org/namespaces/inkscape"
   width="50"
   height="50"
   viewBox="0 0 50 50"
   version="1.1"
   id="svg7"
   sodipodi:docname="lock.svg"
   inkscape:version="1.0.1 (3bc2e813f5, 2020-09-07)">
  <metadata
     id="metadata11">
    <rdf:RDF>
      <cc:Work
         rdf:about="">
        <dc:format>image/svg+xml</dc:format>
        <dc:type
           rdf:resource="http://purl.org/dc/dcmitype/StillImage" />
        <dc:title></dc:title>
      </cc:Work>
    </rdf:RDF>
  </metadata>
  <sodipodi:namedview
     pagecolor="#ffffff"
     bordercolor="#666666"
     borderopacity="1"
     objecttolerance="10"
     gridtolerance="10"
     guidetolerance="10"
     inkscape:pageopacity="0"
     inkscape:pageshadow="2"
     inkscape:window-width="2560"
     inkscape:window-height="1004"
     id="namedview9"
     showgrid="false"
     inkscape:zoom="38.136364"
     inkscape:cx="4.693683"
     inkscape:cy="5.7556615"
     inkscape:window-x="0"
     inkscape:window-y="0"
     inkscape:window-maximized="1"
     inkscape:current-layer="svg7" />
  <defs
     id="defs3">
    <style
       id="current-color-scheme"
       type="text/css">
   .ColorScheme-Text { color:#444444; } .ColorScheme-Highlight { color:#4285f4; }
  </style>
  </defs>
  <path
     style="fill:#cccccc;stroke-width:2.85714"
     class="ColorScheme-Text"
     d="M 25,5 C 18.668572,5 13.571429,10.204571 13.571429,16.607143 v 5.535714 H 10.714286 C 9.1314287,22.142857 7.857143,23.417143 7.857143,25 V 42.142857 C 7.857143,43.725714 9.1314287,45 10.714286,45 h 28.571428 c 1.582858,0 2.857143,-1.274286 2.857143,-2.857143 V 25 c 0,-1.582857 -1.274285,-2.857143 -2.857143,-2.857143 H 36.428572 V 16.607143 C 36.428572,10.207143 31.331429,5 25,5 Z m 0,5.714286 c 3.165714,0 5.714286,2.548571 5.714286,5.714285 v 5.714286 H 19.285714 v -5.714286 c 0,-3.165714 2.548572,-5.714285 5.714286,-5.714285 z"
     id="path5" />
</svg>
