<?xml version="1.0" encoding="UTF-8" standalone="no"?>
<svg
   xmlns:dc="http://purl.org/dc/elements/1.1/"
   xmlns:cc="http://creativecommons.org/ns#"
   xmlns:rdf="http://www.w3.org/1999/02/22-rdf-syntax-ns#"
   xmlns:svg="http://www.w3.org/2000/svg"
   xmlns="http://www.w3.org/2000/svg"
   xmlns:sodipodi="http://sodipodi.sourceforge.net/DTD/sodipodi-0.dtd"
   xmlns:inkscape="http://www.inkscape.org/namespaces/inkscape"
   sodipodi:docname="logo.svg"
   inkscape:version="1.0 (4035a4fb49, 2020-05-01)"
   id="svg8"
   version="1.1"
   viewBox="0 0 102.75572 102.75572"
   height="102.75572mm"
   width="102.75572mm">
  <defs
     id="defs2">
    <filter
       style="color-interpolation-filters:sRGB;"
       inkscape:label="Drop Shadow"
       id="filter1321">
      <feFlood
         flood-opacity="0.498039"
         flood-color="rgb(0,0,0)"
         result="flood"
         id="feFlood1311" />
      <feComposite
         in="flood"
         in2="SourceGraphic"
         operator="in"
         result="composite1"
         id="feComposite1313" />
      <feGaussianBlur
         in="composite1"
         stdDeviation="3"
         result="blur"
         id="feGaussianBlur1315" />
      <feOffset
         dx="1.67737"
         dy="4.41889"
         result="offset"
         id="feOffset1317" />
      <feComposite
         in="SourceGraphic"
         in2="offset"
         operator="over"
         result="fbSourceGraphic"
         id="feComposite1319" />
      <feColorMatrix
         result="fbSourceGraphicAlpha"
         in="fbSourceGraphic"
         values="0 0 0 -1 0 0 0 0 -1 0 0 0 0 -1 0 0 0 0 1 0"
         id="feColorMatrix1407" />
      <feFlood
         id="feFlood1409"
         flood-opacity="0.498039"
         flood-color="rgb(0,0,0)"
         result="flood"
         in="fbSourceGraphic" />
      <feComposite
         in2="fbSourceGraphic"
         id="feComposite1411"
         in="flood"
         operator="in"
         result="composite1" />
      <feGaussianBlur
         id="feGaussianBlur1413"
         in="composite1"
         stdDeviation="3"
         result="blur" />
      <feOffset
         id="feOffset1415"
         dx="-0.842994"
         dy="-0.504016"
         result="offset" />
      <feComposite
         in2="offset"
         id="feComposite1417"
         in="fbSourceGraphic"
         operator="over"
         result="composite2" />
    </filter>
  </defs>
  <sodipodi:namedview
     inkscape:window-maximized="1"
     inkscape:window-y="0"
     inkscape:window-x="0"
     inkscape:window-height="1004"
     inkscape:window-width="1920"
     showgrid="false"
     inkscape:document-rotation="0"
     inkscape:current-layer="layer1"
     inkscape:document-units="mm"
     inkscape:cy="183.9259"
     inkscape:cx="-268.99113"
     inkscape:zoom="0.318"
     inkscape:pageshadow="2"
     inkscape:pageopacity="0.0"
     borderopacity="1.0"
     bordercolor="#666666"
     pagecolor="#ffffff"
     id="base"
     fit-margin-top="0"
     fit-margin-left="0"
     fit-margin-right="0"
     fit-margin-bottom="0" />
  <metadata
     id="metadata5">
    <rdf:RDF>
      <cc:Work
         rdf:about="">
        <dc:format>image/svg+xml</dc:format>
        <dc:type
           rdf:resource="http://purl.org/dc/dcmitype/StillImage" />
        <dc:title />
      </cc:Work>
    </rdf:RDF>
  </metadata>
  <g
     id="layer1"
     inkscape:groupmode="layer"
     inkscape:label="Layer 1"
     transform="translate(-53.865967,-36.699097)">
    <circle
       r="51.377861"
       cy="88.076958"
       cx="105.24383"
       id="path919"
       style="fill:#e87ba1;stroke:none;stroke-width:0.516735;stroke-opacity:1;fill-opacity:1" />
    <path
       style="fill:#333333;fill-opacity:1;stroke:none;stroke-width:0.305529px;stroke-linecap:butt;stroke-linejoin:miter;stroke-opacity:1"
       d="m 128.59871,80.703579 c 0,0 -2.74519,-9.181 -5.48326,-12.073835 -2.73808,-2.892836 -9.38247,-4.971575 -9.38247,-4.971575 -2.5523,-5.280869 -3.9389,-9.429311 -4.87401,-13.139167 -4.39851,3.737581 -6.68591,6.008611 -6.94546,11.71872 C 87.804919,63.645 84.659596,81.542065 70.598003,85.675154 c 1.30147,0.822984 2.719597,1.268206 4.264757,1.302077 -3.134365,3.90283 -8.135208,6.916457 -14.378325,8.877819 1.308354,0.705437 2.637368,1.375749 4.264757,1.538812 -3.045739,2.019328 -7.234625,3.834628 -10.78807,4.630818 8.101342,23.2181 28.633096,35.54992 45.97322,38.53987 1.569868,-18.13044 -14.187734,-34.80896 -3.869645,-48.497376 1.971129,4.634329 5.144653,7.111853 9.748023,8.049226 -3.91915,-13.126285 2.67539,-20.990286 11.21021,-13.375915 -2.48074,-10.248801 2.12696,-19.57422 11.57578,-6.036906 z"
       id="path1305"
       sodipodi:nodetypes="czccccccccccccc" />
    <path
       style="fill:#ececec;fill-opacity:1;stroke:none;stroke-width:0.305529px;stroke-linecap:butt;stroke-linejoin:miter;stroke-opacity:1"
       d="m 101.09218,129.33298 c -2.207756,-13.20209 -9.675178,-21.73342 -4.554595,-32.895705 2.010517,3.805175 5.720375,6.469195 12.067495,7.010125 -5.00559,-15.917627 1.56411,-20.445437 10.54005,-12.920264 -2.75254,-21.780602 7.91081,-11.379825 11.30072,-4.544655 3.98399,8.033073 11.31502,3.885667 17.41591,14.273119 -2.34931,6.8366 -4.96801,6.72518 -9.62616,7.6941 -6.6327,8.25029 -14.5155,-1.47446 -26.51899,1.36547 -3.87786,0.91747 -9.19132,13.14161 -10.62443,20.01781 z"
       id="path1307"
       sodipodi:nodetypes="ccccsccsc" />
  </g>
</svg>
