<?xml version="1.0" encoding="UTF-8" standalone="no"?>
<svg
   xmlns:dc="http://purl.org/dc/elements/1.1/"
   xmlns:cc="http://creativecommons.org/ns#"
   xmlns:rdf="http://www.w3.org/1999/02/22-rdf-syntax-ns#"
   xmlns:svg="http://www.w3.org/2000/svg"
   xmlns="http://www.w3.org/2000/svg"
   xmlns:sodipodi="http://sodipodi.sourceforge.net/DTD/sodipodi-0.dtd"
   xmlns:inkscape="http://www.inkscape.org/namespaces/inkscape"
   width="30"
   height="30"
   version="1"
   id="svg12"
   sodipodi:docname="logout.svg"
   inkscape:version="1.0.2 (e86c870879, 2021-01-15)">
  <metadata
     id="metadata18">
    <rdf:RDF>
      <cc:Work
         rdf:about="">
        <dc:format>image/svg+xml</dc:format>
        <dc:type
           rdf:resource="http://purl.org/dc/dcmitype/StillImage" />
        <dc:title></dc:title>
      </cc:Work>
    </rdf:RDF>
  </metadata>
  <defs
     id="defs16" />
  <sodipodi:namedview
     pagecolor="#ffffff"
     bordercolor="#666666"
     borderopacity="1"
     objecttolerance="10"
     gridtolerance="10"
     guidetolerance="10"
     inkscape:pageopacity="0"
     inkscape:pageshadow="2"
     inkscape:window-width="1920"
     inkscape:window-height="980"
     id="namedview14"
     showgrid="true"
     inkscape:zoom="13.109375"
     inkscape:cx="1.7519978"
     inkscape:cy="12.602809"
     inkscape:window-x="0"
     inkscape:window-y="36"
     inkscape:window-maximized="1"
     inkscape:current-layer="svg12"
     inkscape:document-rotation="0"
     showguides="true"
     inkscape:guide-bbox="true">
    <sodipodi:guide
       position="24.980203,-3.0941411"
       orientation="1,0"
       id="guide830" />
    <inkscape:grid
       type="xygrid"
       id="grid831" />
  </sodipodi:namedview>
  <path
     fill="#fff"
     d="M 14.970302,24.999953 C 9.4474794,24.983553 4.9836422,20.493124 5.0000432,14.970302 5.016444,9.4474794 9.5068721,4.9836421 15.029695,5.0000431 c 5.522823,0.016401 9.98666,4.506829 9.970258,10.0296519 -0.0164,5.522823 -4.506829,9.98666 -10.029651,9.970258 z m 0.0066,-2.222211 c 4.295528,0.01276 7.788084,-3.459118 7.80084,-7.754647 0.01276,-4.295528 -3.459118,-7.7880837 -7.754646,-7.8008398 -4.295529,-0.012756 -7.7880847,3.4591178 -7.8008408,7.7546458 -0.012756,4.295529 3.4591178,7.788085 7.7546468,7.800841 z m 1.0132,-4.444425 -2.197578,-1.716645 -2.237393,-1.629985 2.245923,-1.61667 2.208402,-1.70345 -0.03327,2.222134 -0.0059,2.222214 0.01945,2.222289 z"
     id="path6"
     style="fill:#cccccc;stroke-width:1.11111"
     sodipodi:nodetypes="ssssscsssscccccccccc" />
</svg>
