<?xml version="1.0" encoding="UTF-8" standalone="no"?>
<svg
   xmlns:dc="http://purl.org/dc/elements/1.1/"
   xmlns:cc="http://creativecommons.org/ns#"
   xmlns:rdf="http://www.w3.org/1999/02/22-rdf-syntax-ns#"
   xmlns:svg="http://www.w3.org/2000/svg"
   xmlns="http://www.w3.org/2000/svg"
   xmlns:sodipodi="http://sodipodi.sourceforge.net/DTD/sodipodi-0.dtd"
   xmlns:inkscape="http://www.inkscape.org/namespaces/inkscape"
   width="30"
   height="30"
   version="1"
   id="svg12"
   sodipodi:docname="shutdown.svg"
   inkscape:version="1.0.2 (e86c870879, 2021-01-15)">
  <metadata
     id="metadata18">
    <rdf:RDF>
      <cc:Work
         rdf:about="">
        <dc:format>image/svg+xml</dc:format>
        <dc:type
           rdf:resource="http://purl.org/dc/dcmitype/StillImage" />
        <dc:title></dc:title>
      </cc:Work>
    </rdf:RDF>
  </metadata>
  <defs
     id="defs16" />
  <sodipodi:namedview
     pagecolor="#ffffff"
     bordercolor="#666666"
     borderopacity="1"
     objecttolerance="10"
     gridtolerance="10"
     guidetolerance="10"
     inkscape:pageopacity="0"
     inkscape:pageshadow="2"
     inkscape:window-width="1920"
     inkscape:window-height="980"
     id="namedview14"
     showgrid="false"
     inkscape:zoom="6.5546875"
     inkscape:cx="-18.396434"
     inkscape:cy="16"
     inkscape:window-x="0"
     inkscape:window-y="36"
     inkscape:window-maximized="1"
     inkscape:current-layer="svg12"
     inkscape:document-rotation="0" />
  <path
     fill="#fff"
     d="M 15,5 A 10,10 0 0 0 5,15 10,10 0 0 0 15,25 10,10 0 0 0 25,15 10,10 0 0 0 15,5 Z m 0,2.222222 A 7.777778,7.777778 0 0 1 22.777778,15 7.777778,7.777778 0 0 1 15,22.777778 7.777778,7.777778 0 0 1 7.222222,15 7.777778,7.777778 0 0 1 15,7.222222 Z m 0,3.333333 c -0.615555,0 -1.111111,0.495556 -1.111111,1.111112 v 6.666666 c 0,0.615556 0.495556,1.111112 1.111111,1.111112 0.615555,0 1.111111,-0.495556 1.111111,-1.111112 v -6.666666 c 0,-0.615556 -0.495556,-1.111112 -1.111111,-1.111112 z"
     id="path6"
     style="fill:#cccccc;stroke-width:1.11111" />
</svg>
