<?xml version="1.0" encoding="UTF-8" standalone="no"?>
<svg
   xmlns:dc="http://purl.org/dc/elements/1.1/"
   xmlns:cc="http://creativecommons.org/ns#"
   xmlns:rdf="http://www.w3.org/1999/02/22-rdf-syntax-ns#"
   xmlns:svg="http://www.w3.org/2000/svg"
   xmlns="http://www.w3.org/2000/svg"
   xmlns:sodipodi="http://sodipodi.sourceforge.net/DTD/sodipodi-0.dtd"
   xmlns:inkscape="http://www.inkscape.org/namespaces/inkscape"
   width="30"
   height="30"
   version="1"
   id="svg12"
   sodipodi:docname="standby.svg"
   inkscape:version="1.0.2 (e86c870879, 2021-01-15)">
  <metadata
     id="metadata18">
    <rdf:RDF>
      <cc:Work
         rdf:about="">
        <dc:format>image/svg+xml</dc:format>
        <dc:type
           rdf:resource="http://purl.org/dc/dcmitype/StillImage" />
        <dc:title></dc:title>
      </cc:Work>
    </rdf:RDF>
  </metadata>
  <defs
     id="defs16" />
  <sodipodi:namedview
     pagecolor="#ffffff"
     bordercolor="#666666"
     borderopacity="1"
     objecttolerance="10"
     gridtolerance="10"
     guidetolerance="10"
     inkscape:pageopacity="0"
     inkscape:pageshadow="2"
     inkscape:window-width="1920"
     inkscape:window-height="980"
     id="namedview14"
     showgrid="false"
     inkscape:zoom="9.269728"
     inkscape:cx="10.925748"
     inkscape:cy="16"
     inkscape:window-x="0"
     inkscape:window-y="36"
     inkscape:window-maximized="1"
     inkscape:current-layer="svg12"
     inkscape:document-rotation="0" />
  <path
     fill="#fff"
     d="M 15,5 C 9.4771107,5 5,9.4771107 5,15 5,20.522889 9.4771107,25 15,25 20.522889,25 25,20.522889 25,15 25,9.4771107 20.522889,5 15,5 Z m 0,2.222222 c 4.295555,0 7.777778,3.482223 7.777778,7.777778 0,4.295555 -3.482223,7.777778 -7.777778,7.777778 -4.295555,0 -7.777778,-3.482223 -7.777778,-7.777778 0,-4.295555 3.482223,-7.777778 7.777778,-7.777778 z m 0,5.555556 A 2.2222222,2.2222222 0 0 0 12.777778,15 2.2222222,2.2222222 0 0 0 15,17.222222 2.2222222,2.2222222 0 0 0 17.222222,15 2.2222222,2.2222222 0 0 0 15,12.777778 Z"
     id="path6"
     style="fill:#cccccc;stroke-width:1.11111" />
</svg>
